<?xml version="1.0" encoding="utf-8"?>
<!-- Generator: Adobe Illustrator 26.5.0, SVG Export Plug-In . SVG Version: 6.00 Build 0)  -->
<svg version="1.1" id="Layer_1" xmlns="http://www.w3.org/2000/svg" xmlns:xlink="http://www.w3.org/1999/xlink" x="0px" y="0px"
	 viewBox="0 0 2000 2000" style="enable-background:new 0 0 2000 2000;" xml:space="preserve">
<style type="text/css">
	.st0{fill:none;stroke:#000000;stroke-width:30;stroke-miterlimit:10;}
	.st1{fill:none;stroke:#000000;stroke-width:10;stroke-miterlimit:10;}
</style>
<circle class="st0" cx="1000" cy="993.2" r="973.4"/>
<g>
	<path class="st1" d="M1000,753.7c-41.1,0-81.1-8.1-118.6-23.9c-36.3-15.3-68.9-37.3-96.9-65.3c-28-28-50-60.6-65.3-96.9
		c-15.9-37.6-23.9-77.5-23.9-118.6s8.1-81.1,23.9-118.6c15.3-36.3,37.3-68.9,65.3-96.9c28-28,60.6-50,96.9-65.3
		c37.6-15.9,77.5-23.9,118.6-23.9s81.1,8.1,118.6,23.9c36.3,15.3,68.9,37.3,96.9,65.3c28,28,50,60.6,65.3,96.9
		c15.9,37.6,23.9,77.5,23.9,118.6s-8.1,81.1-23.9,118.6c-15.3,36.3-37.3,68.9-65.3,96.9c-28,28-60.6,50-96.9,65.3
		C1081.1,745.7,1041.1,753.7,1000,753.7z"/>
	<path class="st1" d="M1000,156.6c39.5,0,77.8,7.7,113.8,23c34.8,14.7,66.1,35.8,92.9,62.7c26.9,26.9,47.9,58.1,62.7,92.9
		c15.2,36,23,74.3,23,113.8s-7.7,77.8-23,113.8c-14.7,34.8-35.8,66.1-62.7,92.9c-26.9,26.9-58.1,47.9-92.9,62.7
		c-36,15.2-74.3,23-113.8,23s-77.8-7.7-113.8-23c-34.8-14.7-66.1-35.8-92.9-62.7c-26.9-26.9-47.9-58.1-62.7-92.9
		c-15.2-36-23-74.3-23-113.8s7.7-77.8,23-113.8c14.7-34.8,35.8-66.1,62.7-92.9c26.9-26.9,58.1-47.9,92.9-62.7
		C922.2,164.3,960.5,156.6,1000,156.6 M1000,131.8c-175.2,0-317.2,142-317.2,317.2s142,317.2,317.2,317.2s317.2-142,317.2-317.2
		S1175.2,131.8,1000,131.8L1000,131.8z"/>
</g>
<g>
	<path class="st0" d="M292.7,1557c-0.8-395.9,327.1-718.6,717.1-713.2c382.7,5.3,698.3,324.8,697.5,713.2"/>
</g>
</svg>
